#tb 0: 1001/30000
0,          0,          0,        1,     1632, 770582911fd0095ebbeae384e87665ac
0,          1,          1,        1,     1632, f99d7e3131f04413cba2f9de6818976d
0,          2,          2,        1,     1632, 3bfbb8c9c48f24cd596973a6deb33a3f
0,          3,          3,        1,     1632, 0b8166afdd357f20c76f77d228bb7171
0,          4,          4,        1,     1632, 3a3d7f2a03e19a82250d6ca0238f9791
0,          5,          5,        1,     1632, 9b558f9b8744b016059f69f3fca90d2c
0,          6,          6,        1,     1632, c857736342f1145d919cb77732120006
0,          7,          7,        1,     1632, 11dc5dda4c883a3146db060dd50343d0
0,          8,          8,        1,     1632, 7526a62ae87de174be86eac7bb36c7f3
0,          9,          9,        1,     1632, 9ef38f47cfc461710ff0dd75690473c0
